<?xml version="1.0" encoding="UTF-8"?>
<svg id="Camada_1" xmlns="http://www.w3.org/2000/svg" version="1.1" viewBox="0 0 3420 579">
  <!-- Generator: Adobe Illustrator 29.5.1, SVG Export Plug-In . SVG Version: 2.1.0 Build 141)  -->
  <defs>
    <style>
      .st0 {
        fill: #fff;
      }
    </style>
  </defs>
  <g>
    <path class="st0" d="M1262.7,146.7c-12.1-9.8-26.8-17.2-43.9-22.2s-36.3-7.5-57.6-7.5h-126.3c-2.7,0-4.8,2.2-4.8,4.8v319.5c0,2.7,2.2,4.8,4.8,4.8h62.2c2.7,0,4.8-2.2,4.8-4.8v-83.1c0-2.7,2.2-4.8,4.8-4.8h39.1c33.9,0,62.2-4.5,85-13.5s40-22.2,51.6-39.6c11.6-17.5,17.5-39,17.5-64.6,0-19.9-3.2-37.3-9.5-52.1s-15.6-27.1-27.7-36.9h0ZM1209.6,282.3c-12,9.8-29.9,14.7-53.9,14.7h-49c-2.7,0-4.8-2.2-4.8-4.8v-115c0-2.7,2.2-4.8,4.8-4.8h52.5c23.3,0,40.5,5.2,51.6,15.7s16.7,25.7,16.7,45.6c0,22.6-5.9,38.8-17.9,48.6h0Z"/>
    <path class="st0" d="M1483.9,178.3c-17.3,0-31.8,3.3-43.4,10s-20.7,17-27.2,30.9c-6.1,13.1-10.5,29.8-13.2,50.2-.3,2.4-2.4,4.2-4.8,4.2h-.5c-2.6,0-4.8-2.1-4.8-4.8l-.4-79.7c0-2.6-2.2-4.8-4.8-4.8h-49.7c-2.7,0-4.8,2.2-4.8,4.8v252.2c0,2.7,2.2,4.8,4.8,4.8h62.7c2.7,0,4.8-2.2,4.8-4.8v-116.1c2-15.8,5.9-29.3,11.7-40.3,5.8-11.1,13.4-19.7,22.7-25.7,9.3-6,20.4-9,33.4-9,4.7,0,10,.5,16,1.5,3.6.6,7.1,1.5,10.4,2.6,3,1,6.2-1.2,6.3-4.4l2.6-65.4c.1-2.4-1.6-4.5-4-4.9-3-.5-5.7-.8-8.1-.9-3.5-.3-6.7-.4-9.7-.4h0Z"/>
    <path class="st0" d="M1718,192.8c-20.1-10.3-43.3-15.5-69.6-15.5s-48.5,5.1-68.6,15.2c-20.1,10.1-35.9,25.4-47.4,45.6-11.5,20.3-17.2,45.7-17.2,76.3s5.6,56.1,17,76.5c11.3,20.4,26.9,35.9,46.9,46.4,19.9,10.5,43,15.7,69.3,15.7s48.4-5,68.6-15c20.1-10,36.1-25.2,47.9-45.6s17.7-46.1,17.7-77-5.7-56.1-17.2-76.5-27.3-35.8-47.4-46.1h0ZM1703.5,363.6c-4.5,12.1-11.1,21.2-19.9,27.2s-19.7,9-32.7,9c-19.9,0-35.6-7.3-46.9-21.9s-17-36.1-17-64.3c0-17.6,2.3-32.5,7-44.6s11.5-21.1,20.4-26.9c9-5.8,19.6-8.7,31.9-8.7,14.3,0,26.1,3.4,35.4,10.2s16.4,16.6,21.2,29.4c4.8,12.8,7.2,28.3,7.2,46.6.2,17.2-2.1,31.9-6.6,44h0Z"/>
    <path class="st0" d="M2009.7,311.5c-10.1-5.6-21.5-10.2-34.2-13.7-12.6-3.5-25.6-6.6-38.9-9.2-12.6-2.7-23.6-5.2-32.9-7.7s-16.5-5.7-21.7-9.7-7.7-9.1-7.7-15.5c0-7.6,3.9-13.8,11.7-18.5,7.8-4.7,18.9-7,33.2-7,11.3,0,21.2,1.5,29.7,4.5s15.3,7.5,20.4,13.5c4.1,4.7,6.9,10.1,8.6,16,.7,2.6,3.5,4.1,6.1,3.2l49-16.3c2.5-.8,3.8-3.5,3.1-6-3.9-13-10.6-24.4-20-34.1-10.5-10.8-23.9-19.1-40.1-24.9-16.3-5.8-35.2-8.7-56.8-8.7-23.9,0-44.2,3.4-60.8,10.2-16.6,6.8-29.3,16.2-37.9,28.2s-13,25.9-13,41.9,3.4,27.8,10.2,37.6c6.8,9.8,15.6,17.7,26.4,23.7s22.6,10.6,35.4,14c12.8,3.3,25.3,6.5,37.5,9.4.1,0,.2,0,.3.1,12.6,2.3,23.3,4.8,32.3,7.5s15.8,5.8,20.4,9.5c4.7,3.7,7,8.6,7,15,0,8.3-4.2,14.7-12.5,19.2s-20.1,6.7-35.4,6.7c-14.3,0-26.5-1.9-36.7-5.7-10.1-3.8-18.2-8.9-24.2-15.2-4.6-4.8-7.8-10-9.7-15.4-.9-2.6-3.8-4-6.4-2.9l-46.1,18.8c-2.2.9-3.4,3.2-2.9,5.5,2.2,9.4,6.1,18,11.6,25.7,6.3,8.8,14.6,16.4,24.9,22.7,10.3,6.3,22.6,11.1,36.9,14.5,14.3,3.3,30.2,5,47.9,5,24.9,0,46.2-3.3,63.8-10,17.6-6.6,31.1-16.2,40.4-28.7s14-27.3,14-44.6c0-14.6-3-26.6-9-35.9-5.7-9.6-13.8-17.1-23.9-22.7h0Z"/>
    <path class="st0" d="M2291.2,194.5c-16.6-11.5-36.6-17.2-59.8-17.2-15.6,0-29.4,3-41.4,9s-21.7,15-29.2,26.9c-6.9,11-11.9,24.4-15,40.3-.5,2.4-2.6,4-5,3.9h-.2c-2.5-.1-4.5-2.2-4.5-4.8l-.4-63.5c0-2.6-2.2-4.8-4.8-4.8h-49.8c-2.7,0-4.8,2.2-4.8,4.8v335.9c0,2.7,2.2,4.8,4.8,4.8h62.2c2.7,0,4.8-2.2,4.8-4.8v-69c0-8.3-.5-16.9-1.5-25.7-1-8.8-2.3-17.9-4-27.2-1.3-7.3-2.7-14.5-4.2-21.6-.6-3,1.7-5.8,4.7-5.8h0c2.1,0,3.9,1.3,4.6,3.3,4.8,14.6,10.7,27.2,17.6,37.9,7.5,11.5,17,20.4,28.4,26.7,11.5,6.3,25.5,9.5,42.1,9.5,23.6,0,43.3-6,59.1-18s27.7-28.2,35.7-48.6,12-43.8,12-70.1c0-28.3-4.4-52.8-13.2-73.6-8.9-20.7-21.6-36.8-38.2-48.3h0ZM2260.5,357.9c-4.5,12-10.9,21.3-19.2,27.9-8.3,6.7-18.5,10-30.4,10-8,0-15.3-1.6-21.9-4.7-6.7-3.2-12.5-7.3-17.5-12.5-5-5.1-9.3-11-13-17.5s-6.3-13.1-8-19.9-2.5-13.4-2.5-19.7v-9.5c0-8,1.2-16.4,3.5-25.2,2.3-8.8,6.1-17,11.2-24.7,5.2-7.6,11.5-13.8,19.2-18.5,7.6-4.7,16.8-7,27.4-7,12,0,22.3,3.3,30.9,10,8.6,6.7,15.3,15.9,19.9,27.7,4.7,11.8,7,26,7,42.6.2,15.4-2.1,29-6.6,41h0Z"/>
    <path class="st0" d="M2550.7,373.8c-2.5,5-5.8,9.5-10,13.5s-9.5,7.2-16,9.7-14.4,3.7-23.7,3.7c-20.3,0-36.7-6.6-49.1-19.9-9.8-10.5-15.7-25.6-17.8-45.3-.3-2.8,1.9-5.3,4.7-5.3l173.4-1.7c2.6,0,4.7-2.1,4.8-4.6.9-22.4-.9-42.4-5.5-60-4.8-18.8-12.5-34.7-22.9-47.6-10.5-13-23.5-22.7-39.1-29.2s-33.4-9.7-53.4-9.7-39.1,3.5-55.4,10.5c-16.3,7-30.1,16.9-41.4,29.7-11.3,12.8-19.9,27.9-25.7,45.4-5.8,17.5-8.7,36.5-8.7,57.1s3.1,39.7,9.2,56.4c6.1,16.6,15,30.6,26.7,41.9,11.6,11.3,25.8,19.9,42.6,25.9s36,9,57.6,9c18,0,33.7-1.9,47.1-5.7,13.5-3.8,25-9.3,34.7-16.5,9.6-7.1,17.4-15.6,23.2-25.4,5-8.5,9-17.9,11.9-28.2.7-2.7-.9-5.4-3.6-6l-53.3-11.5c-2.3-.5-4.7.8-5.5,3-1.3,3.5-2.9,7.1-4.8,10.8ZM2441.3,272.3c5.3-12.8,12.8-22.5,22.4-29.2,9.6-6.6,20.8-10,33.4-10,10.6,0,20.4,2.7,29.2,8s15.5,13.6,20.2,24.9c2.2,5.4,3.7,11.6,4.3,18.5.3,2.8-2,5.2-4.8,5.2l-104.2.9c-3.1,0-5.5-2.9-4.7-6,1.2-4.2,2.6-8.4,4.2-12.3h0Z"/>
    <path class="st0" d="M2827,371.6c-3.8,8.2-9.7,14.8-17.7,19.9-8,5.2-18.6,7.7-31.9,7.7-14,0-25.7-3.2-35.2-9.7s-16.6-16-21.4-28.4c-4.8-12.5-7.2-27.7-7.2-45.6,0-12.6,1.2-24,3.7-34.2,2.5-10.1,6.1-18.8,11-25.9,4.8-7.1,10.7-12.6,17.7-16.5,7-3.8,15.3-5.7,24.9-5.7s17.7,1.9,25.2,5.7,13.5,9.5,18,17c3.7,6.1,6.1,13.1,7.5,21.1.5,2.9,3.4,4.7,6.2,3.8l56.6-18.3c2.4-.8,3.8-3.3,3.2-5.7-3.8-15.1-10.2-28.4-19.2-39.8-9.8-12.5-22.6-22.2-38.4-29.2-15.8-7-34.3-10.5-55.6-10.5s-40.2,3.5-56.8,10.5-30.6,16.8-41.9,29.4c-11.3,12.6-19.9,27.5-25.7,44.6s-8.7,36-8.7,56.6,2.8,37.6,8.5,54.1c5.6,16.5,14.1,30.7,25.4,42.6,11.3,12,25.4,21.3,42.4,27.9s36.7,10,59.3,10c19.3,0,36-2.4,50.1-7.2,14.1-4.8,26.2-11.4,36.2-19.7,10-8.3,17.7-18.1,23.2-29.4,4.8-10,8.2-20.6,10.1-31.9.4-2.5-1.2-4.9-3.7-5.5l-53.4-11.9c-2.7-.6-5.3,1.1-5.8,3.8-1.3,7-3.5,13.8-6.6,20.4h0Z"/>
    <path class="st0" d="M3037.2,385.8c-11.6,0-20.3-2.7-25.9-8-5.7-5.3-8.5-14-8.5-25.9v-104.4c0-2.7,2.2-4.8,4.8-4.8h56.7c2.7,0,4.8-2.2,4.8-4.8v-48.7c0-2.7-2.2-4.8-4.8-4.8h-56.7c-2.7,0-4.8-2.2-4.8-4.8v-48.7c0-2.7-2.2-4.8-4.8-4.8h-32c-2.3,0-4.3,1.7-4.7,4l-5.8,33.4c-1,8-4,13.5-9,16.5s-12.6,4.5-22.9,4.5h-21.7c-2.6,0-4.8,2.1-4.8,4.7l-.8,46.7c0,2.7,2.1,4.9,4.8,4.9h28.2c2.7,0,4.8,2.2,4.8,4.8v109.4c0,33.9,6.9,58.6,20.7,74.1s35.3,23.2,64.6,23.2c6.6,0,14.3-.5,22.9-1.5,7.7-.9,16-2.7,25-5.4,2-.6,3.4-2.5,3.4-4.6v-55.1c0-3.5-3.6-5.8-6.8-4.4-2.6,1.1-5.4,2-8.4,2.7-5.9,1.1-12,1.8-18.3,1.8h0Z"/>
    <path class="st0" d="M3337.6,238.9c-11.5-20.4-27.3-35.8-47.4-46.1-20.1-10.3-43.3-15.5-69.6-15.5s-48.5,5.1-68.6,15.2c-20.1,10.1-35.9,25.4-47.4,45.6-11.5,20.3-17.2,45.7-17.2,76.3s5.6,56.1,17,76.5c11.3,20.4,26.9,35.9,46.9,46.4,19.9,10.5,43,15.7,69.3,15.7s48.4-5,68.6-15c20.1-10,36.1-25.2,47.9-45.6,11.8-20.4,17.7-46.1,17.7-77s-5.7-56-17.2-76.5h0ZM3275.8,363.6c-4.5,12.1-11.1,21.2-19.9,27.2-8.8,6-19.7,9-32.7,9-19.9,0-35.6-7.3-46.9-21.9-11.3-14.6-17-36.1-17-64.3,0-17.6,2.3-32.5,7-44.6s11.5-21.1,20.4-26.9c9-5.8,19.6-8.7,31.9-8.7,14.3,0,26.1,3.4,35.4,10.2,9.3,6.8,16.4,16.6,21.2,29.4s7.2,28.3,7.2,46.6c.1,17.2-2.1,31.9-6.6,44h0Z"/>
  </g>
  <path class="st0" d="M835,322.9c-36.2,32.8-74.4,63-114.4,90.9-21.5,15-49,12.5-67.5-6.1-3.4-3.4-6.7-6.8-10.1-10.1-10.5-10.1-12.9-22-8.3-35.7,15.1-44.1,14.2-87.9-5.7-130.1-29.5-62.5-78.8-101-146.8-114.5-39.8-7.9-77.5-.9-113.6,17.3-18.8,9.5-20.1,31-6.7,44.1,19.6,19.3,40.5,35.9,66.2,46.1,17.1,6.8,34.2,7.2,51.5.6,20.4-7.7,40.8-15.3,61.2-23.1,4.8-1.8,9.2-2.4,13.2,1.4,4.2,4,3.9,8.5,2,13.6-7.2,18.7-13.7,37.7-21.4,56.1-9.7,23.4-7.4,45.4,3.8,67.6,10.1,20.1,23.6,37.4,39.7,52.9,15.7,15.2,31,30.8,46.4,46.2,12,12,9.7,27.9-5,36.1-46.2,25.6-95.7,39.5-156,40.6-45.7.6-96.3-11.1-145.3-30.8-63.6-25.6-120.6-62.2-173.9-104.7-24.2-19.3-47.4-39.9-70.8-60.1-11-9.5-11.2-26.3-.5-36.1,37.1-33.9,76.4-65.1,117.8-93.5,20.4-14,47.3-10.9,64.9,6.5,3.8,3.7,7.5,7.5,11.2,11.2,9.9,9.8,12.6,21.3,8.1,34.3-8.8,25.3-12.2,51.3-9.3,78,4.2,38.1,19.7,71.4,44.6,100.1,31.6,36.5,71.2,59.7,119,67.9,40.5,6.9,78.8,0,114.7-20,14.1-7.9,17.3-26.4,6.8-38.1-19.9-22.4-43.2-40.2-71.6-50.8-16.2-6-32.3-6.2-48.5-.2-20.1,7.5-40.1,15.1-60.2,22.7-1.2.4-2.3.8-3.5,1.2-4.6,1.8-8.8,1-12.1-2.5-3.2-3.4-3.5-7.5-1.9-11.8,6.9-18.4,13.2-37.1,21-55.2,10.6-24.5,8.6-47.8-3.5-71-8.9-17-19.7-32.4-33.3-46-17.5-17.4-35-34.7-52.3-52.3-11.7-11.8-9.3-27.6,5.2-35.7,59.1-32.6,122.1-45.7,189.3-38.6,47.6,5,92.5,19.1,135.7,39,66.4,30.5,125.4,72.4,180.9,119.4,13.2,11.1,26,22.6,38.9,34.1,12.8,11.7,12.6,27.7.1,39.1h0Z"/>
</svg>